<svg width="720" height="420" viewBox="0 0 720 420" fill="none" xmlns="http://www.w3.org/2000/svg">
  <defs>
    <linearGradient id="bg" x1="84" y1="36" x2="646" y2="396" gradientUnits="userSpaceOnUse">
      <stop stop-color="#101622"/>
      <stop offset="1" stop-color="#0D1117"/>
    </linearGradient>
    <linearGradient id="stroke" x1="106" y1="70" x2="610" y2="352" gradientUnits="userSpaceOnUse">
      <stop stop-color="#8EA6FF" stop-opacity="0.95"/>
      <stop offset="0.58" stop-color="#73C7D3" stop-opacity="0.68"/>
      <stop offset="1" stop-color="#B7C2D3" stop-opacity="0.38"/>
    </linearGradient>
    <radialGradient id="glow1" cx="0" cy="0" r="1" gradientUnits="userSpaceOnUse" gradientTransform="translate(575 106) rotate(140.377) scale(182.378 162.135)">
      <stop stop-color="#8EA6FF" stop-opacity="0.3"/>
      <stop offset="1" stop-color="#8EA6FF" stop-opacity="0"/>
    </radialGradient>
    <radialGradient id="glow2" cx="0" cy="0" r="1" gradientUnits="userSpaceOnUse" gradientTransform="translate(546 300) rotate(147.674) scale(170.568 123.63)">
      <stop stop-color="#73C7D3" stop-opacity="0.22"/>
      <stop offset="1" stop-color="#73C7D3" stop-opacity="0"/>
    </radialGradient>
    <filter id="shadow" x="62" y="18" width="596" height="384" filterUnits="userSpaceOnUse" color-interpolation-filters="sRGB">
      <feDropShadow dx="0" dy="10" stdDeviation="16" flood-color="#000000" flood-opacity="0.28"/>
    </filter>
    <pattern id="grid" width="28" height="28" patternUnits="userSpaceOnUse">
      <path d="M28 0H0V28" stroke="#B7C2D3" stroke-opacity="0.08" stroke-width="1"/>
    </pattern>
  </defs>

  <g filter="url(#shadow)">
    <rect x="84" y="36" width="552" height="348" rx="28" fill="url(#bg)"/>
    <rect x="84.75" y="36.75" width="550.5" height="346.5" rx="27.25" stroke="url(#stroke)" stroke-opacity="0.75" stroke-width="1.5"/>
  </g>

  <rect x="84" y="36" width="552" height="348" rx="28" fill="url(#grid)"/>
  <ellipse cx="575" cy="106" rx="150" ry="128" fill="url(#glow1)"/>
  <ellipse cx="546" cy="300" rx="145" ry="98" fill="url(#glow2)"/>

  <circle cx="128" cy="77" r="4" fill="#7C8CA2"/>
  <circle cx="146" cy="77" r="4" fill="#7C8CA2"/>
  <circle cx="164" cy="77" r="4" fill="#7C8CA2"/>

  <path d="M118 104H602" stroke="#AAB6C7" stroke-opacity="0.18"/>
  <path d="M118 130H282" stroke="#D8E1F0" stroke-opacity="0.72" stroke-width="2" stroke-linecap="round"/>
  <path d="M118 150H246" stroke="#AAB6C7" stroke-opacity="0.32" stroke-width="2" stroke-linecap="round"/>

  <rect x="118" y="192" width="130" height="78" rx="16" fill="#11192A" stroke="#8EA6FF" stroke-opacity="0.28"/>
  <path d="M140 232H226" stroke="#AAB6C7" stroke-opacity="0.36" stroke-width="2" stroke-linecap="round"/>
  <path d="M140 252H192" stroke="#AAB6C7" stroke-opacity="0.22" stroke-width="2" stroke-linecap="round"/>
  <circle cx="224" cy="217" r="6" fill="#8EA6FF" fill-opacity="0.72"/>

  <rect x="271" y="192" width="142" height="92" rx="18" fill="#101929" stroke="#73C7D3" stroke-opacity="0.28"/>
  <path d="M296 218C322 196 366 196 391 220" stroke="#73C7D3" stroke-opacity="0.56" stroke-width="2.4" stroke-linecap="round"/>
  <path d="M297 256C321 238 363 238 388 258" stroke="#8EA6FF" stroke-opacity="0.42" stroke-width="2.4" stroke-linecap="round"/>
  <circle cx="393" cy="219" r="5" fill="#73C7D3" fill-opacity="0.88"/>
  <circle cx="390" cy="258" r="5" fill="#8EA6FF" fill-opacity="0.88"/>

  <g opacity="0.94">
    <path d="M502 198L556 228L502 258L448 228L502 198Z" stroke="#D8E1F0" stroke-opacity="0.42" stroke-width="1.8"/>
    <path d="M502 216L531 232L502 249L474 232L502 216Z" fill="#D8E1F0" fill-opacity="0.06" stroke="#73C7D3" stroke-opacity="0.5" stroke-width="1.5"/>
    <circle cx="502" cy="228" r="6.5" fill="#8EA6FF" fill-opacity="0.82"/>
  </g>

  <path d="M474 322H584" stroke="#D8E1F0" stroke-opacity="0.18" stroke-width="2" stroke-linecap="round"/>
  <path d="M474 342H542" stroke="#D8E1F0" stroke-opacity="0.12" stroke-width="2" stroke-linecap="round"/>

  <circle cx="594" cy="320" r="3.2" fill="#73C7D3"/>
  <circle cx="604" cy="320" r="3.2" fill="#8EA6FF"/>
  <circle cx="614" cy="320" r="3.2" fill="#B7C2D3" fill-opacity="0.8"/>
</svg>
